<svg xmlns="http://www.w3.org/2000/svg" width="22" height="22" viewBox="0 0 22 22" fill="none">
    <path fill-rule="evenodd" clip-rule="evenodd" d="M6.3694 2.15658C7.00281 2.24115 7.633 1.98012 8.02108 1.47244C9.52181 -0.490813 12.4782 -0.490813 13.9789 1.47244C14.3669 1.98012 14.9972 2.24115 15.6306 2.15658C18.0801 1.82954 20.1705 3.92 19.8433 6.36938C19.7587 7.00279 20.0198 7.633 20.5275 8.02107C22.4908 9.52182 22.4908 12.4782 20.5275 13.9789C20.0198 14.3669 19.7587 14.9972 19.8433 15.6306C20.1277 17.7601 18.5848 19.6184 16.5673 19.8525L16.5531 19.8683L16.5387 19.8557C16.2445 19.8875 15.9404 19.8847 15.6306 19.8433C14.9972 19.7587 14.3669 20.0198 13.9789 20.5275C12.4782 22.4908 9.52181 22.4908 8.02108 20.5275C7.633 20.0198 7.00281 19.7587 6.3694 19.8433C3.91999 20.1705 1.82954 18.0799 2.15658 15.6306C2.24116 14.9972 1.98012 14.3669 1.47244 13.9789C-0.490814 12.4782 -0.490814 9.52182 1.47244 8.02107C1.98012 7.633 2.24116 7.00279 2.15658 6.36938C1.82954 3.92 3.91999 1.82954 6.3694 2.15658ZM16.9735 18.7618C18.195 18.3684 19.0528 17.142 18.8682 15.7608C18.7371 14.7777 19.1423 13.7996 19.93 13.1974C20.8273 12.5114 21.1688 11.4133 20.9541 10.4138C20.9453 10.3476 20.927 10.2784 20.9012 10.207C20.8822 10.1428 20.8607 10.0792 20.8369 10.0163H20.8184C20.7002 9.77947 20.5242 9.52669 20.3532 9.28134C20.2947 9.19734 20.2366 9.11385 20.1818 9.03253H20.1953C20.1129 8.95171 20.0246 8.87488 19.93 8.80262C19.1423 8.20031 18.7371 7.22223 18.8682 6.2392C19.1095 4.43242 17.5675 2.89041 15.7607 3.13166C14.7777 3.26291 13.7996 2.85777 13.1974 2.06985C12.7547 1.49083 12.1405 1.14332 11.4918 1.02733V5.09763C11.4918 5.20931 11.4538 5.31769 11.384 5.4049L9.91296 7.24376H11.9055L12.2928 5.94118C12.3548 5.73254 12.5466 5.5895 12.7642 5.5895H14.145C14.3477 5.01638 14.8942 4.60576 15.5367 4.60576C16.3516 4.60576 17.0123 5.26642 17.0123 6.08135C17.0123 6.89629 16.3516 7.55695 15.5367 7.55695C14.8942 7.55695 14.3477 7.14633 14.145 6.57321H13.1312L12.7438 7.87581C12.6818 8.08443 12.49 8.2275 12.2724 8.2275H9.52439V10.5081H12.4756C12.6158 10.5081 12.7493 10.5679 12.8426 10.6726L14.1714 12.1624H15.332C15.5347 11.5893 16.0812 11.1787 16.7236 11.1787C17.5386 11.1787 18.1992 11.8393 18.1992 12.6543C18.1992 13.4692 17.5386 14.1299 16.7236 14.1299C16.0812 14.1299 15.5347 13.7193 15.332 13.1462H13.9511C13.811 13.1462 13.6775 13.0862 13.5841 12.9817L12.2552 11.4918H9.81989L11.7991 13.0752C11.9158 13.1686 11.9837 13.3099 11.9837 13.4592V16.4104H12V17.3943H11.9837V17.886C11.9837 18.0165 11.9319 18.1416 11.8396 18.2338L10.5081 19.5655V20.9727C11.4818 21.1468 12.5329 20.7994 13.1974 19.93C13.7246 19.2404 14.5397 18.844 15.3943 18.8438C15.5521 18.868 16.4433 18.9902 16.9735 18.7618ZM8.80261 2.06985C9.24523 1.49085 9.85947 1.14334 10.5081 1.02733V4.92509L8.64844 7.24968C8.57868 7.33689 8.54066 7.44525 8.54066 7.55695V9.42535L7.24375 8.58626V7.47297C7.81688 7.27041 8.22749 6.72383 8.22749 6.08135C8.22749 5.26642 7.56684 4.60576 6.75189 4.60576C5.93696 4.60576 5.2763 5.26642 5.2763 6.08135C5.2763 6.72383 5.68691 7.27041 6.26004 7.47297V8.85385C6.26004 9.02069 6.34461 9.17617 6.48469 9.2668L8.54066 10.597V11.4918C8.54066 11.6413 8.60858 11.7826 8.72526 11.8759L11 13.6957V15.1135H9.56607L8.23716 13.6237C8.14384 13.5192 8.01031 13.4592 7.87011 13.4592H6.48925C6.28668 12.8862 5.7401 12.4756 5.09762 12.4756C4.28267 12.4756 3.62203 13.1362 3.62203 13.9512C3.62203 14.7661 4.28267 15.4267 5.09762 15.4267C5.7401 15.4267 6.28668 15.0162 6.48925 14.4431H7.64975L8.97863 15.9329C9.07196 16.0374 9.20551 16.0974 9.34569 16.0974H11V17.6823L9.66845 19.0138C9.5762 19.1061 9.52439 19.2312 9.52439 19.3616V20.5919C9.25548 20.4222 9.01018 20.2017 8.80261 19.93C8.2003 19.1423 7.22224 18.7371 6.23921 18.8682C4.43243 19.1095 2.89042 17.5676 3.13166 15.7608C3.26291 14.7777 2.85778 13.7996 2.06985 13.1974C1.05161 12.419 0.749321 11.1098 1.16297 10.0163H1.17264C1.31338 9.63462 1.53424 9.29985 1.81313 9.03253H1.80478C1.88697 8.95171 1.97532 8.87488 2.06985 8.80262C2.85778 8.20031 3.26291 7.22223 3.13166 6.2392C2.89042 4.43242 4.43243 2.89041 6.23921 3.13166C7.22224 3.26291 8.2003 2.85777 8.80261 2.06985ZM15.5367 5.5895C15.265 5.5895 15.0449 5.8097 15.0449 6.08135C15.0449 6.35299 15.265 6.57321 15.5367 6.57321C15.8083 6.57321 16.0286 6.35299 16.0286 6.08135C16.0286 5.8097 15.8083 5.5895 15.5367 5.5895ZM16.2317 12.6543C16.2317 12.9259 16.452 13.1462 16.7236 13.1462C16.9953 13.1462 17.2155 12.9259 17.2155 12.6543C17.2155 12.3826 16.9953 12.1624 16.7236 12.1624C16.452 12.1624 16.2317 12.3826 16.2317 12.6543ZM5.58949 13.9512C5.58949 13.6795 5.36927 13.4592 5.09762 13.4592C4.82597 13.4592 4.60575 13.6795 4.60575 13.9512C4.60575 14.2228 4.82597 14.4431 5.09762 14.4431C5.36927 14.4431 5.58949 14.2228 5.58949 13.9512ZM7.24375 6.08135C7.24375 6.35299 7.02354 6.57321 6.75189 6.57321C6.48026 6.57321 6.26004 6.35299 6.26004 6.08135C6.26004 5.8097 6.48026 5.5895 6.75189 5.5895C7.02354 5.5895 7.24375 5.8097 7.24375 6.08135Z" fill="currentColor" stroke="currentColor" stroke-width=".15"/>
</svg>
